<svg width="64" height="57" viewBox="0 0 64 57" fill="none" xmlns="http://www.w3.org/2000/svg">
<g clip-path="url(#clip0_1788_6754)">
<path d="M48.2124 9.37192H4.38154C1.95853 9.37192 0 11.3523 0 13.785V39.3901C0 41.0275 0.913466 42.5323 2.36108 43.2808C0.596075 32.8875 14.8399 29.1294 18.4087 38.9301C19.895 34.5404 24.6326 32.1935 28.9909 33.6906C31.4372 34.5326 33.357 36.4663 34.193 38.9301C37.7695 29.1294 52.0056 32.9031 50.2406 43.2808C51.6882 42.5245 52.594 41.0275 52.6017 39.3901V13.785C52.6017 11.3445 50.6354 9.37192 48.2202 9.37192H48.2124ZM35.0678 30.5562H17.5339C17.0462 30.5484 16.6669 30.143 16.6746 29.6595C16.6824 29.1839 17.0617 28.8019 17.5339 28.7941H35.0678C35.5555 28.7941 35.9348 29.1995 35.9348 29.6907C35.9348 30.1663 35.5478 30.5562 35.0678 30.564V30.5562ZM42.0814 24.381H10.5203C10.0326 24.381 9.65332 23.9756 9.66106 23.4844C9.66106 23.0088 10.0481 22.6189 10.5203 22.6189H42.0814C42.5691 22.6189 42.9484 23.0244 42.9406 23.5156C42.9406 23.9912 42.5536 24.381 42.0814 24.381ZM42.0814 18.198H10.5203C10.0326 18.1903 9.65332 17.7848 9.66106 17.3014C9.6688 16.8258 10.0481 16.4437 10.5203 16.4359H42.0814C42.5691 16.4359 42.9484 16.8414 42.9406 17.3326C42.9406 17.8082 42.5536 18.198 42.0814 18.198Z" fill="black"/>
<path d="M51.7196 54.399H50.7984C50.4733 51.2257 48.476 48.4733 45.5731 47.1946C48.6463 45.2532 49.5753 41.1676 47.64 38.0722C45.7124 34.9768 41.656 34.0412 38.5827 35.9904C35.5095 37.9397 34.5805 42.0175 36.5158 45.1129C37.0422 45.9549 37.7467 46.6722 38.5905 47.2024C36.6706 48.0445 35.1146 49.5493 34.1934 51.444C33.2722 49.5493 31.7162 48.0445 29.7964 47.2024C32.8697 45.261 33.7986 41.1754 31.8711 38.08C29.9435 34.9846 25.8871 34.049 22.8138 35.9904C19.7406 37.9319 18.8116 42.0175 20.7392 45.1129C21.2656 45.9549 21.97 46.6722 22.8138 47.2024C20.894 48.0445 19.338 49.5493 18.4168 51.444C17.4956 49.5493 15.9396 48.0445 14.0198 47.2024C17.0931 45.261 18.022 41.1754 16.0944 38.08C14.1669 34.9846 10.1105 34.049 7.03719 35.9904C3.96391 37.9319 3.03497 42.0175 4.96253 45.1129C5.48894 45.9549 6.19339 46.6722 7.03719 47.2024C4.13422 48.4811 2.13698 51.2334 1.81185 54.4068H0.890644C0.402946 54.4146 0.0236252 54.82 0.0313664 55.3112C0.0391076 55.7869 0.418428 56.1611 0.890644 56.1767H51.7351C52.2228 56.1689 52.6021 55.7635 52.5944 55.2801C52.5866 54.8044 52.2073 54.4224 51.7351 54.4146L51.7196 54.399ZM10.5207 46.4539C4.14196 46.2278 4.14196 36.9651 10.5207 36.7389C16.8995 36.9651 16.8995 46.2278 10.5207 46.4539ZM26.2974 46.4539C19.9186 46.2278 19.9186 36.9651 26.2974 36.7389C32.6762 36.9651 32.6762 46.2278 26.2974 46.4539ZM42.0818 46.4539C35.703 46.2278 35.703 36.9651 42.0818 36.7389C48.4605 36.9651 48.4605 46.2278 42.0818 46.4539Z" fill="black"/>
<path d="M53.0998 5.08709C53.1528 4.98925 53.2157 4.89718 53.2877 4.81237C53.8642 4.21253 54.561 3.74144 55.3322 3.42995C56.1035 3.11847 56.9318 2.97362 57.7629 3.00493C58.9813 3.04466 60.1507 3.49446 61.082 4.28162C62.0134 5.06877 62.6523 6.14727 62.8954 7.34278C63.165 8.82882 62.9096 10.3624 62.1731 11.6806C61.609 12.7261 60.9174 13.6975 60.1142 14.5725C58.6622 16.1542 57.1273 17.6577 55.5162 19.0767C54.7938 19.7491 54.0462 20.4142 53.3057 21.0829C53.2154 21.1661 53.1143 21.242 53.0095 21.3287C52.9521 21.3005 52.8977 21.2666 52.847 21.2275C50.8062 19.3189 48.751 17.4247 46.7356 15.4907C45.7397 14.541 44.8716 13.4655 44.153 12.2916C43.3376 11.0381 42.9371 9.55972 43.008 8.06576C43.0844 6.8739 43.5533 5.74098 44.3415 4.84425C45.1297 3.94751 46.1926 3.33754 47.3641 3.10976C48.3061 2.92432 49.2793 2.97444 50.1973 3.25568C51.1153 3.53693 51.9498 4.04059 52.6267 4.72199C52.7288 4.84397 52.8184 4.97598 52.894 5.11601L53.0998 5.08709Z" fill="#E11E7A"/>
</g>
<defs>
<clipPath id="clip0_1788_6754">
<rect width="63.9349" height="56.1691" fill="white"/>
</clipPath>
</defs>
</svg>
